<?xml version="1.0" standalone="no"?>
<!DOCTYPE svg PUBLIC "-//W3C//DTD SVG 20010904//EN"
 "http://www.w3.org/TR/2001/REC-SVG-20010904/DTD/svg10.dtd">
<svg version="1.0" xmlns="http://www.w3.org/2000/svg"
 width="2880.000000pt" height="2880.000000pt" viewBox="0 0 2880.000000 2880.000000"
 preserveAspectRatio="xMidYMid meet">
<metadata>
Created by potrace 1.11, written by Peter Selinger 2001-2013
</metadata>
<g transform="translate(0.000000,2880.000000) scale(0.100000,-0.100000)"
fill="#000000" stroke="none">
<path d="M13635 28604 c-938 -48 -1651 -143 -2520 -335 -1432 -317 -2789 -869
-4065 -1654 -909 -559 -1760 -1223 -2500 -1951 -494 -486 -678 -683 -1136
-1214 -504 -585 -1108 -1460 -1521 -2203 -535 -965 -964 -2034 -1233 -3071
-287 -1108 -416 -2027 -460 -3276 -22 -627 -3 -1250 61 -1930 98 -1063 314
-2106 633 -3065 652 -1955 1734 -3720 3245 -5289 565 -588 1285 -1222 1921
-1693 1736 -1284 3665 -2106 5790 -2467 882 -150 1742 -214 2700 -203 579 7
917 25 1435 77 944 95 1988 312 2820 586 868 286 1490 551 2245 957 574 309
1138 666 1605 1016 1101 826 1925 1610 2771 2636 256 311 436 544 601 775 753
1062 1294 2087 1716 3250 552 1523 819 3109 820 4865 0 904 -62 1692 -199
2523 -378 2298 -1322 4401 -2809 6257 -662 826 -1482 1656 -2285 2310 -1551
1265 -3240 2140 -5070 2628 -577 154 -943 231 -1525 321 -497 77 -1063 130
-1655 156 -313 13 -1074 10 -1385 -6z m1547 -689 c1011 -60 1773 -174 2673
-401 1318 -333 2538 -865 3720 -1622 1570 -1005 3046 -2455 4121 -4047 1000
-1482 1680 -3182 1984 -4956 125 -733 186 -1435 197 -2254 17 -1300 -122
-2520 -417 -3662 -230 -890 -467 -1542 -870 -2393 -300 -635 -718 -1326 -1214
-2010 -160 -220 -296 -393 -557 -705 -741 -888 -1506 -1615 -2479 -2356 -213
-162 -267 -200 -550 -389 -763 -509 -1449 -878 -2230 -1200 -428 -176 -1051
-389 -1447 -494 -583 -155 -981 -241 -1481 -321 -620 -98 -1142 -144 -1880
-166 -1387 -41 -2854 135 -4147 497 -186 52 -203 57 -515 159 -906 296 -1748
683 -2605 1198 -1196 717 -2416 1757 -3394 2892 -571 663 -1123 1439 -1538
2165 -870 1519 -1412 3237 -1597 5060 -104 1019 -101 2099 10 3140 162 1524
600 3031 1271 4375 213 426 354 676 609 1082 554 882 1200 1688 1974 2463 872
873 1715 1538 2695 2127 1072 644 2267 1143 3408 1423 929 229 1782 352 2757
399 305 15 1227 12 1502 -4z"/>
<path d="M18910 22754 c-533 -47 -976 -155 -1443 -355 -526 -225 -964 -519
-1365 -917 -453 -449 -831 -971 -1123 -1547 -277 -549 -428 -1098 -479 -1739
-41 -520 41 -1285 226 -2121 40 -181 153 -614 175 -672 l9 -23 4244 0 c4032 0
4244 1 4251 18 34 83 121 335 158 457 129 421 205 815 243 1260 23 272 15 864
-15 1120 -118 984 -381 1745 -849 2460 -467 713 -1015 1219 -1722 1588 -446
233 -849 364 -1360 443 -162 25 -201 27 -540 29 -201 1 -385 1 -410 -1z m843
-1028 c406 -63 529 -87 634 -121 7 -2 -50 -66 -125 -142 -235 -236 -330 -400
-436 -755 -88 -297 -106 -408 -102 -613 9 -354 140 -674 397 -964 239 -271
551 -448 921 -523 97 -20 143 -23 323 -23 179 0 226 4 320 23 148 31 297 82
430 147 140 68 234 132 377 253 63 53 121 103 130 110 14 11 21 -7 62 -175
116 -479 152 -814 143 -1318 -8 -440 -47 -700 -168 -1138 l-41 -147 -3511 2
-3510 3 -33 145 c-52 226 -122 609 -144 782 -85 687 -18 1428 182 2007 202
585 528 1083 1018 1554 469 452 1118 775 1790 892 154 27 616 73 743 74 100 1
189 -10 600 -73z"/>
<path d="M5475 22713 c-563 -59 -1000 -201 -1422 -464 -579 -362 -1167 -1111
-1531 -1949 -256 -592 -437 -1300 -508 -1990 -21 -210 -30 -811 -15 -1050 38
-602 159 -1197 354 -1733 l62 -172 3644 -3 c2005 -1 3649 2 3653 6 20 20 133
451 187 712 68 332 114 668 132 980 14 253 7 751 -16 980 -85 879 -313 1656
-691 2365 -439 820 -926 1346 -1649 1780 -446 269 -883 432 -1363 512 -143 23
-186 26 -477 28 -176 2 -338 1 -360 -2z m715 -933 c148 -11 315 -36 475 -71
94 -21 285 -87 285 -99 0 -3 -34 -28 -75 -54 -367 -233 -647 -629 -736 -1044
-26 -125 -37 -439 -20 -563 51 -351 200 -650 461 -922 268 -280 554 -428 930
-483 166 -24 431 -15 592 20 335 72 573 201 810 437 93 92 129 122 132 110 9
-31 46 -237 75 -426 137 -871 100 -1645 -107 -2255 -22 -63 -47 -134 -57 -158
l-17 -42 -2936 2 -2936 3 -23 40 c-112 197 -196 712 -210 1295 -13 551 63
1102 237 1719 147 521 306 881 550 1246 267 399 661 790 935 928 494 248 1058
357 1635 317z"/>
<path d="M2945 12870 c-3 -5 -26 -10 -51 -10 l-44 0 0 -440 0 -440 39 0 c22 0
43 -4 46 -10 4 -6 183 -10 504 -10 l498 0 7 -210 c15 -479 81 -932 207 -1420
200 -778 757 -2059 1331 -3065 635 -1111 1394 -2099 2165 -2818 583 -543 1177
-990 1766 -1329 214 -123 658 -345 872 -436 758 -323 1507 -525 2345 -631 863
-110 2086 -104 2945 15 723 100 1468 289 2075 527 853 335 1517 699 2361 1297
474 336 1097 836 1379 1107 450 431 749 789 1075 1283 234 355 470 823 636
1263 146 385 278 931 333 1377 79 637 91 1193 40 1805 -46 552 -150 1063 -319
1570 -67 202 -176 488 -211 557 l-15 28 -9989 0 c-6648 0 -9991 -3 -9995 -10z
m13552 -5525 c323 -28 582 -75 877 -160 979 -281 1969 -981 2763 -1952 l82
-100 -142 -121 c-864 -735 -1816 -1276 -2967 -1686 -493 -177 -906 -291 -1400
-390 -471 -95 -843 -141 -1425 -177 -245 -15 -901 -6 -1115 15 -584 59 -1077
157 -1615 322 -169 52 -425 143 -439 155 -11 10 5 68 100 361 130 402 209 600
359 898 406 811 971 1497 1613 1959 538 386 1224 673 1929 806 183 35 461 72
583 78 205 10 636 6 797 -8z"/>
</g>
</svg>
